<svg xmlns="http://www.w3.org/2000/svg" viewBox="0 0 1100 700" width="1100" height="700">
  <defs>
    <pattern id="dots" x="0" y="0" width="14" height="14" patternUnits="userSpaceOnUse">
      <circle cx="2" cy="2" r="1" fill="#1f1f1f"/>
    </pattern>
  </defs>
  <defs>
    <filter id="glow" x="-50%" y="-50%" width="200%" height="200%">
      <feGaussianBlur stdDeviation="2" result="b"/>
      <feMerge><feMergeNode in="b"/><feMergeNode in="SourceGraphic"/></feMerge>
    </filter>
  </defs>
  <rect width="1100" height="700" fill="#000000"/>
  <rect width="1100" height="700" fill="url(#dots)"/>
  <rect x="0" y="0" width="1100" height="40" fill="#000000"/>
    <text x="550" y="24" font-family="JetBrains Mono, Consolas, monospace" font-size="11"
          fill="#666" letter-spacing="2" text-anchor="middle">PAUSELY</text>
  <text x="40" y="72"
              font-family="JetBrains Mono, Consolas, monospace" font-size="11"
              fill="#ffffff"
              font-weight="500"
              letter-spacing="2.5">DASHBOARD</text><line x1="40" y1="86" x2="128.5" y2="86" stroke="#ffffff" stroke-width="1.5"/><text x="176.5" y="72"
              font-family="JetBrains Mono, Consolas, monospace" font-size="11"
              fill="#888888"
              font-weight="400"
              letter-spacing="2.5">SETTINGS</text><line x1="0" y1="88" x2="1100" y2="88" stroke="#333333"/>
  <text x="40" y="135" font-family="JetBrains Mono, Consolas, monospace" font-size="11"
            fill="#888888" letter-spacing="3">// SYSTEM STATUS</text>
    <text x="40" y="172" font-family="JetBrains Mono, Consolas, monospace" font-size="26" font-weight="700"
          fill="#ffffff" letter-spacing="-0.6">PAUSELY</text>
    <text x="1060" y="172" font-family="JetBrains Mono, Consolas, monospace" font-size="10"
          fill="#888888" letter-spacing="2.5" text-anchor="end">v1.1.0 · ONLINE</text>

  <rect x="40" y="200" width="1020" height="48" fill="#0d0d0d" stroke="#333333"/>
  <text x="60" y="231" font-family="JetBrains Mono, Consolas, monospace" font-size="11" fill="#888888" letter-spacing="2.5">SCREEN TIME / SESSION</text>
  <text x="1040" y="231" font-family="JetBrains Mono, Consolas, monospace" font-size="13" fill="#ffffff" letter-spacing="1" text-anchor="end">23m <tspan fill="#888888"> / 60m</tspan></text>

  <g transform="translate(40 280)">
    <rect width="330" height="360" fill="#0d0d0d" stroke="#333333"/>

    <rect x="22" y="22" width="36" height="36" fill="#000000" stroke="#333333"/>
    <text x="40" y="46" font-family="Inter, -apple-system, BlinkMacSystemFont, sans-serif" font-size="16" fill="#ffffff" text-anchor="middle">☕</text>
    <text x="72" y="38"
          font-family="JetBrains Mono, Consolas, monospace" font-size="12" fill="#ffffff"
          font-weight="500" letter-spacing="2.4">BREAK</text>
    <text x="72" y="56" font-family="Inter, -apple-system, BlinkMacSystemFont, sans-serif" font-size="11" fill="#888888">Stand up & stretch</text>

    <rect x="245" y="24" width="60" height="18" fill="none" stroke="#ffffff"/>
    <text x="275" y="36" font-family="JetBrains Mono, Consolas, monospace" font-size="9"
          fill="#ffffff" letter-spacing="2" text-anchor="middle">● ACTIVE</text>

    <line x1="165.00" y1="128.00" x2="165.00" y2="123.00" stroke="#3a3a3a"/><line x1="237.00" y1="200.00" x2="242.00" y2="200.00" stroke="#3a3a3a"/><line x1="165.00" y1="272.00" x2="165.00" y2="277.00" stroke="#3a3a3a"/><line x1="93.00" y1="200.00" x2="88.00" y2="200.00" stroke="#3a3a3a"/><circle cx="165.00" cy="134.00" r="2.2" fill="#ffffff"/><circle cx="173.61" cy="134.56" r="1.5" fill="#ffffff"/><circle cx="182.08" cy="136.25" r="1.5" fill="#ffffff"/><circle cx="190.26" cy="139.02" r="1.5" fill="#ffffff"/><circle cx="198.00" cy="142.84" r="1.5" fill="#ffffff"/><circle cx="205.18" cy="147.64" r="1.5" fill="#ffffff"/><circle cx="211.67" cy="153.33" r="1.5" fill="#ffffff"/><circle cx="217.36" cy="159.82" r="1.5" fill="#ffffff"/><circle cx="222.16" cy="167.00" r="1.5" fill="#ffffff"/><circle cx="225.98" cy="174.74" r="1.5" fill="#ffffff"/><circle cx="228.75" cy="182.92" r="1.5" fill="#ffffff"/><circle cx="230.44" cy="191.39" r="1.5" fill="#ffffff"/><circle cx="231.00" cy="200.00" r="2.2" fill="#ffffff"/><circle cx="230.44" cy="208.61" r="1.5" fill="#ffffff"/><circle cx="228.75" cy="217.08" r="2.6" fill="#ff0000" filter="url(#glow)"/><circle cx="225.98" cy="225.26" r="1.5" fill="#222222"/><circle cx="222.16" cy="233.00" r="1.5" fill="#222222"/><circle cx="217.36" cy="240.18" r="1.5" fill="#222222"/><circle cx="211.67" cy="246.67" r="1.5" fill="#222222"/><circle cx="205.18" cy="252.36" r="1.5" fill="#222222"/><circle cx="198.00" cy="257.16" r="1.5" fill="#222222"/><circle cx="190.26" cy="260.98" r="1.5" fill="#222222"/><circle cx="182.08" cy="263.75" r="1.5" fill="#222222"/><circle cx="173.61" cy="265.44" r="1.5" fill="#222222"/><circle cx="165.00" cy="266.00" r="2.2" fill="#3a3a3a"/><circle cx="156.39" cy="265.44" r="1.5" fill="#222222"/><circle cx="147.92" cy="263.75" r="1.5" fill="#222222"/><circle cx="139.74" cy="260.98" r="1.5" fill="#222222"/><circle cx="132.00" cy="257.16" r="1.5" fill="#222222"/><circle cx="124.82" cy="252.36" r="1.5" fill="#222222"/><circle cx="118.33" cy="246.67" r="1.5" fill="#222222"/><circle cx="112.64" cy="240.18" r="1.5" fill="#222222"/><circle cx="107.84" cy="233.00" r="1.5" fill="#222222"/><circle cx="104.02" cy="225.26" r="1.5" fill="#222222"/><circle cx="101.25" cy="217.08" r="1.5" fill="#222222"/><circle cx="99.56" cy="208.61" r="1.5" fill="#222222"/><circle cx="99.00" cy="200.00" r="2.2" fill="#3a3a3a"/><circle cx="99.56" cy="191.39" r="1.5" fill="#222222"/><circle cx="101.25" cy="182.92" r="1.5" fill="#222222"/><circle cx="104.02" cy="174.74" r="1.5" fill="#222222"/><circle cx="107.84" cy="167.00" r="1.5" fill="#222222"/><circle cx="112.64" cy="159.82" r="1.5" fill="#222222"/><circle cx="118.33" cy="153.33" r="1.5" fill="#222222"/><circle cx="124.82" cy="147.64" r="1.5" fill="#222222"/><circle cx="132.00" cy="142.84" r="1.5" fill="#222222"/><circle cx="139.74" cy="139.02" r="1.5" fill="#222222"/><circle cx="147.92" cy="136.25" r="1.5" fill="#222222"/><circle cx="156.39" cy="134.56" r="1.5" fill="#222222"/><text x="165" y="206"
            font-family="JetBrains Mono, Consolas, monospace" font-size="22" font-weight="600"
            fill="#ffffff" text-anchor="middle">31:24</text><text x="165" y="224"
            font-family="JetBrains Mono, Consolas, monospace" font-size="9" fill="#666"
            letter-spacing="3" text-anchor="middle">REMAINING</text>

    <rect x="125" y="306" width="80" height="28" fill="none" stroke="#ffffff"/>
    <text x="165" y="324"
          font-family="JetBrains Mono, Consolas, monospace" font-size="10" fill="#ffffff"
          letter-spacing="2.5" text-anchor="middle">↺ RESET</text>
  </g>

  <g transform="translate(385 280)">
    <rect width="330" height="360" fill="#0d0d0d" stroke="#ff0000"/>

    <rect x="22" y="22" width="36" height="36" fill="#000000" stroke="#333333"/>
    <text x="40" y="46" font-family="Inter, -apple-system, BlinkMacSystemFont, sans-serif" font-size="16" fill="#ffffff" text-anchor="middle">◇</text>
    <text x="72" y="38"
          font-family="JetBrains Mono, Consolas, monospace" font-size="12" fill="#ffffff"
          font-weight="500" letter-spacing="2.4">WATER</text>
    <text x="72" y="56" font-family="Inter, -apple-system, BlinkMacSystemFont, sans-serif" font-size="11" fill="#888888">Stay hydrated</text>

    <rect x="239" y="24" width="66" height="18" fill="none" stroke="#ff0000"/>
    <text x="272" y="36" font-family="JetBrains Mono, Consolas, monospace" font-size="9"
          fill="#ff0000" letter-spacing="2" text-anchor="middle">● STOPPED</text>

    <line x1="165.00" y1="128.00" x2="165.00" y2="123.00" stroke="#3a3a3a"/><line x1="237.00" y1="200.00" x2="242.00" y2="200.00" stroke="#3a3a3a"/><line x1="165.00" y1="272.00" x2="165.00" y2="277.00" stroke="#3a3a3a"/><line x1="93.00" y1="200.00" x2="88.00" y2="200.00" stroke="#3a3a3a"/><circle cx="165.00" cy="134.00" r="2.2" fill="#ff0000"/><circle cx="173.61" cy="134.56" r="1.5" fill="#ff0000"/><circle cx="182.08" cy="136.25" r="1.5" fill="#ff0000"/><circle cx="190.26" cy="139.02" r="1.5" fill="#ff0000"/><circle cx="198.00" cy="142.84" r="1.5" fill="#ff0000"/><circle cx="205.18" cy="147.64" r="1.5" fill="#ff0000"/><circle cx="211.67" cy="153.33" r="1.5" fill="#ff0000"/><circle cx="217.36" cy="159.82" r="1.5" fill="#ff0000"/><circle cx="222.16" cy="167.00" r="1.5" fill="#ff0000"/><circle cx="225.98" cy="174.74" r="1.5" fill="#ff0000"/><circle cx="228.75" cy="182.92" r="1.5" fill="#ff0000"/><circle cx="230.44" cy="191.39" r="1.5" fill="#ff0000"/><circle cx="231.00" cy="200.00" r="2.2" fill="#ff0000"/><circle cx="230.44" cy="208.61" r="1.5" fill="#ff0000"/><circle cx="228.75" cy="217.08" r="1.5" fill="#ff0000"/><circle cx="225.98" cy="225.26" r="1.5" fill="#ff0000"/><circle cx="222.16" cy="233.00" r="1.5" fill="#ff0000"/><circle cx="217.36" cy="240.18" r="1.5" fill="#ff0000"/><circle cx="211.67" cy="246.67" r="1.5" fill="#ff0000"/><circle cx="205.18" cy="252.36" r="1.5" fill="#ff0000"/><circle cx="198.00" cy="257.16" r="1.5" fill="#ff0000"/><circle cx="190.26" cy="260.98" r="1.5" fill="#ff0000"/><circle cx="182.08" cy="263.75" r="1.5" fill="#ff0000"/><circle cx="173.61" cy="265.44" r="1.5" fill="#ff0000"/><circle cx="165.00" cy="266.00" r="2.2" fill="#ff0000"/><circle cx="156.39" cy="265.44" r="1.5" fill="#ff0000"/><circle cx="147.92" cy="263.75" r="1.5" fill="#ff0000"/><circle cx="139.74" cy="260.98" r="1.5" fill="#ff0000"/><circle cx="132.00" cy="257.16" r="1.5" fill="#ff0000"/><circle cx="124.82" cy="252.36" r="1.5" fill="#ff0000"/><circle cx="118.33" cy="246.67" r="1.5" fill="#ff0000"/><circle cx="112.64" cy="240.18" r="1.5" fill="#ff0000"/><circle cx="107.84" cy="233.00" r="1.5" fill="#ff0000"/><circle cx="104.02" cy="225.26" r="1.5" fill="#ff0000"/><circle cx="101.25" cy="217.08" r="1.5" fill="#ff0000"/><circle cx="99.56" cy="208.61" r="1.5" fill="#ff0000"/><circle cx="99.00" cy="200.00" r="2.2" fill="#ff0000"/><circle cx="99.56" cy="191.39" r="1.5" fill="#ff0000"/><circle cx="101.25" cy="182.92" r="1.5" fill="#ff0000"/><circle cx="104.02" cy="174.74" r="1.5" fill="#ff0000"/><circle cx="107.84" cy="167.00" r="1.5" fill="#ff0000"/><circle cx="112.64" cy="159.82" r="1.5" fill="#ff0000"/><circle cx="118.33" cy="153.33" r="1.5" fill="#ff0000"/><circle cx="124.82" cy="147.64" r="1.5" fill="#ff0000"/><circle cx="132.00" cy="142.84" r="1.5" fill="#ff0000"/><circle cx="139.74" cy="139.02" r="1.5" fill="#ff0000"/><circle cx="147.92" cy="136.25" r="1.5" fill="#ff0000"/><circle cx="156.39" cy="134.56" r="1.5" fill="#ff0000"/><text x="165" y="206"
            font-family="JetBrains Mono, Consolas, monospace" font-size="22" font-weight="600"
            fill="#ff0000" text-anchor="middle">00:00</text><text x="165" y="224"
            font-family="JetBrains Mono, Consolas, monospace" font-size="9" fill="#666"
            letter-spacing="3" text-anchor="middle">STOPPED</text>

    <rect x="125" y="306" width="80" height="28" fill="none" stroke="#ff0000"/>
    <text x="165" y="324"
          font-family="JetBrains Mono, Consolas, monospace" font-size="10" fill="#ff0000"
          letter-spacing="2.5" text-anchor="middle">↺ RESTART</text>
  </g>

  <g transform="translate(730 280)">
    <rect width="330" height="360" fill="#0d0d0d" stroke="#333333"/>

    <rect x="22" y="22" width="36" height="36" fill="#000000" stroke="#333333"/>
    <text x="40" y="46" font-family="Inter, -apple-system, BlinkMacSystemFont, sans-serif" font-size="16" fill="#ffffff" text-anchor="middle">▣</text>
    <text x="72" y="38"
          font-family="JetBrains Mono, Consolas, monospace" font-size="12" fill="#ffffff"
          font-weight="500" letter-spacing="2.4">SCREEN BREAK</text>
    <text x="72" y="56" font-family="Inter, -apple-system, BlinkMacSystemFont, sans-serif" font-size="11" fill="#888888">Pause from the screen</text>

    <rect x="245" y="24" width="60" height="18" fill="none" stroke="#ffffff"/>
    <text x="275" y="36" font-family="JetBrains Mono, Consolas, monospace" font-size="9"
          fill="#ffffff" letter-spacing="2" text-anchor="middle">● ACTIVE</text>

    <line x1="165.00" y1="128.00" x2="165.00" y2="123.00" stroke="#3a3a3a"/><line x1="237.00" y1="200.00" x2="242.00" y2="200.00" stroke="#3a3a3a"/><line x1="165.00" y1="272.00" x2="165.00" y2="277.00" stroke="#3a3a3a"/><line x1="93.00" y1="200.00" x2="88.00" y2="200.00" stroke="#3a3a3a"/><circle cx="165.00" cy="134.00" r="2.2" fill="#ffffff"/><circle cx="173.61" cy="134.56" r="1.5" fill="#ffffff"/><circle cx="182.08" cy="136.25" r="1.5" fill="#ffffff"/><circle cx="190.26" cy="139.02" r="1.5" fill="#ffffff"/><circle cx="198.00" cy="142.84" r="1.5" fill="#ffffff"/><circle cx="205.18" cy="147.64" r="1.5" fill="#ffffff"/><circle cx="211.67" cy="153.33" r="1.5" fill="#ffffff"/><circle cx="217.36" cy="159.82" r="1.5" fill="#ffffff"/><circle cx="222.16" cy="167.00" r="1.5" fill="#ffffff"/><circle cx="225.98" cy="174.74" r="1.5" fill="#ffffff"/><circle cx="228.75" cy="182.92" r="1.5" fill="#ffffff"/><circle cx="230.44" cy="191.39" r="1.5" fill="#ffffff"/><circle cx="231.00" cy="200.00" r="2.2" fill="#ffffff"/><circle cx="230.44" cy="208.61" r="1.5" fill="#ffffff"/><circle cx="228.75" cy="217.08" r="1.5" fill="#ffffff"/><circle cx="225.98" cy="225.26" r="1.5" fill="#ffffff"/><circle cx="222.16" cy="233.00" r="1.5" fill="#ffffff"/><circle cx="217.36" cy="240.18" r="2.6" fill="#ff0000" filter="url(#glow)"/><circle cx="211.67" cy="246.67" r="1.5" fill="#222222"/><circle cx="205.18" cy="252.36" r="1.5" fill="#222222"/><circle cx="198.00" cy="257.16" r="1.5" fill="#222222"/><circle cx="190.26" cy="260.98" r="1.5" fill="#222222"/><circle cx="182.08" cy="263.75" r="1.5" fill="#222222"/><circle cx="173.61" cy="265.44" r="1.5" fill="#222222"/><circle cx="165.00" cy="266.00" r="2.2" fill="#3a3a3a"/><circle cx="156.39" cy="265.44" r="1.5" fill="#222222"/><circle cx="147.92" cy="263.75" r="1.5" fill="#222222"/><circle cx="139.74" cy="260.98" r="1.5" fill="#222222"/><circle cx="132.00" cy="257.16" r="1.5" fill="#222222"/><circle cx="124.82" cy="252.36" r="1.5" fill="#222222"/><circle cx="118.33" cy="246.67" r="1.5" fill="#222222"/><circle cx="112.64" cy="240.18" r="1.5" fill="#222222"/><circle cx="107.84" cy="233.00" r="1.5" fill="#222222"/><circle cx="104.02" cy="225.26" r="1.5" fill="#222222"/><circle cx="101.25" cy="217.08" r="1.5" fill="#222222"/><circle cx="99.56" cy="208.61" r="1.5" fill="#222222"/><circle cx="99.00" cy="200.00" r="2.2" fill="#3a3a3a"/><circle cx="99.56" cy="191.39" r="1.5" fill="#222222"/><circle cx="101.25" cy="182.92" r="1.5" fill="#222222"/><circle cx="104.02" cy="174.74" r="1.5" fill="#222222"/><circle cx="107.84" cy="167.00" r="1.5" fill="#222222"/><circle cx="112.64" cy="159.82" r="1.5" fill="#222222"/><circle cx="118.33" cy="153.33" r="1.5" fill="#222222"/><circle cx="124.82" cy="147.64" r="1.5" fill="#222222"/><circle cx="132.00" cy="142.84" r="1.5" fill="#222222"/><circle cx="139.74" cy="139.02" r="1.5" fill="#222222"/><circle cx="147.92" cy="136.25" r="1.5" fill="#222222"/><circle cx="156.39" cy="134.56" r="1.5" fill="#222222"/><text x="165" y="206"
            font-family="JetBrains Mono, Consolas, monospace" font-size="22" font-weight="600"
            fill="#ffffff" text-anchor="middle">37m</text><text x="165" y="224"
            font-family="JetBrains Mono, Consolas, monospace" font-size="9" fill="#666"
            letter-spacing="3" text-anchor="middle">REMAINING</text>

    <rect x="125" y="306" width="80" height="28" fill="none" stroke="#ffffff"/>
    <text x="165" y="324"
          font-family="JetBrains Mono, Consolas, monospace" font-size="10" fill="#ffffff"
          letter-spacing="2.5" text-anchor="middle">↺ RESET</text>
  </g>

  <line x1="40" y1="668" x2="1060" y2="668" stroke="#333333"/>
    <text x="40" y="686" font-family="JetBrains Mono, Consolas, monospace" font-size="10"
          fill="#888888" letter-spacing="2.5">PAUSELY · TIMER UTILITY</text>
    <text x="1060" y="686" font-family="JetBrains Mono, Consolas, monospace" font-size="10"
          fill="#888888" letter-spacing="2" text-anchor="end">MADE WITH ♥ BY <tspan fill="#ffffff">GOPU</tspan></text>
</svg>